<?xml version="1.0" encoding="UTF-8"?><svg id="Layer_1" xmlns="http://www.w3.org/2000/svg" viewBox="0 0 347.14 51.81"><defs><style>.cls-1{fill:#59b047;}.cls-2{fill:#232f3e;fill-rule:evenodd;}</style></defs><path class="cls-1" d="m129.33,38.69c-.41,0-.61-.2-.61-.61v-20.45c0-.41.2-.61.61-.61h1.34c.41,0,.64.2.7.61l.15.97c1.54-1.36,3.25-2.04,5.14-2.04s3.51.71,4.65,2.14c1.13,1.43,1.7,3.37,1.7,5.82s-.6,4.49-1.79,5.99c-1.2,1.5-2.79,2.25-4.77,2.25-1.82,0-3.39-.6-4.71-1.79v7.11c0,.41-.2.61-.61.61h-1.79Zm6.41-8.36c2.8,0,4.19-1.88,4.19-5.65,0-1.92-.34-3.35-1.02-4.29-.68-.93-1.72-1.4-3.11-1.4s-2.8.47-4.07,1.4v8.48c1.32.97,2.65,1.46,4.01,1.46Z"/><path class="cls-1" d="m149.48,32.83c-1.44,0-2.59-.41-3.45-1.23-.86-.82-1.29-1.92-1.29-3.3,0-1.48.53-2.66,1.58-3.54,1.05-.88,2.47-1.32,4.25-1.32,1.13,0,2.41.17,3.83.52v-2.01c0-1.09-.25-1.86-.74-2.31-.5-.45-1.34-.67-2.54-.67-1.4,0-2.77.2-4.1.61-.47.14-.76.21-.88.21-.24,0-.36-.18-.36-.55v-.82c0-.26.04-.46.12-.58.08-.12.24-.23.49-.33.63-.28,1.42-.51,2.39-.68.96-.17,1.92-.26,2.87-.26,1.92,0,3.34.4,4.25,1.2.91.8,1.37,2.02,1.37,3.66v10.39c0,.41-.2.61-.61.61h-1.31c-.39,0-.61-.19-.67-.58l-.15-1c-.73.63-1.53,1.11-2.42,1.46-.88.34-1.76.52-2.63.52Zm.73-2.28c.67,0,1.37-.13,2.1-.39.73-.26,1.43-.65,2.1-1.15v-3.1c-1.09-.26-2.17-.4-3.22-.4-2.29,0-3.43.88-3.43,2.64,0,.77.21,1.36.64,1.78.43.42,1.03.62,1.82.62Z"/><path class="cls-1" d="m161.82,39.06c-.65,0-1.23-.07-1.73-.21-.24-.06-.41-.16-.5-.3-.09-.14-.14-.34-.14-.61v-.79c0-.39.15-.58.46-.58.1,0,.25.02.46.06.2.04.48.06.82.06.75,0,1.34-.19,1.78-.56.44-.38.83-1.04,1.17-1.99l.58-1.55-5.87-14.47c-.14-.34-.21-.59-.21-.73,0-.24.14-.36.43-.36h1.82c.32,0,.55.05.67.15.12.1.24.32.36.67l4.25,11.79,4.1-11.79c.12-.34.24-.57.36-.67.12-.1.34-.15.67-.15h1.7c.28,0,.43.12.43.36,0,.14-.07.38-.21.73l-6.69,17.02c-.55,1.4-1.19,2.4-1.91,3.01-.73.61-1.66.91-2.8.91Z"/><path class="cls-1" d="m175.86,32.43c-.41,0-.61-.2-.61-.61v-14.19c0-.41.2-.61.61-.61h1.34c.2,0,.36.04.47.12.11.08.19.23.23.46l.18.97c1.94-1.34,3.84-2.01,5.68-2.01s3.16.72,3.83,2.16c2.01-1.44,4.01-2.16,6.02-2.16,1.4,0,2.47.4,3.22,1.19.75.79,1.12,1.91,1.12,3.37v10.7c0,.41-.2.61-.61.61h-1.79c-.41,0-.61-.2-.61-.61v-9.85c0-1.01-.19-1.76-.58-2.25-.39-.49-.99-.73-1.82-.73-1.48,0-2.97.46-4.47,1.37.02.14.03.29.03.46v11c0,.41-.2.61-.61.61h-1.79c-.41,0-.61-.2-.61-.61v-9.85c0-1.01-.19-1.76-.58-2.25-.39-.49-.99-.73-1.82-.73-1.54,0-3.02.45-4.44,1.34v11.49c0,.41-.2.61-.61.61h-1.79Z"/><path class="cls-1" d="m208.19,32.89c-2.49,0-4.38-.69-5.65-2.07-1.28-1.38-1.91-3.41-1.91-6.11s.64-4.57,1.91-6c1.28-1.43,3.06-2.14,5.35-2.14,1.92,0,3.4.54,4.44,1.63,1.03,1.08,1.55,2.62,1.55,4.6,0,.65-.05,1.31-.15,1.98-.04.24-.11.41-.2.49-.09.08-.24.12-.44.12h-9.54c.04,1.74.47,3.03,1.29,3.86.82.83,2.09,1.25,3.81,1.25.61,0,1.19-.04,1.75-.12.56-.08,1.26-.25,2.11-.52.14-.04.26-.08.36-.11.1-.03.19-.05.27-.05.26,0,.4.18.4.55v.85c0,.26-.04.45-.12.56-.08.11-.25.23-.52.35-.61.26-1.33.48-2.17.64-.84.16-1.69.24-2.54.24Zm2.92-9.51c.02-.16.03-.43.03-.79,0-1.24-.29-2.17-.87-2.8-.58-.63-1.42-.94-2.54-.94-1.28,0-2.27.38-2.98,1.14-.71.76-1.11,1.89-1.22,3.39h7.57Z"/><path class="cls-1" d="m217.13,32.43c-.41,0-.61-.2-.61-.61v-14.19c0-.41.2-.61.61-.61h1.34c.2,0,.36.04.47.12.11.08.19.23.23.46l.18,1.12c1.92-1.44,3.95-2.16,6.08-2.16,1.48,0,2.6.39,3.37,1.17.77.78,1.15,1.91,1.15,3.39v10.7c0,.41-.2.61-.61.61h-1.79c-.41,0-.61-.2-.61-.61v-9.69c0-1.07-.22-1.86-.65-2.37-.44-.51-1.12-.76-2.05-.76-1.6,0-3.17.52-4.71,1.55v11.27c0,.41-.2.61-.61.61h-1.79Z"/><path class="cls-1" d="m238.8,32.64c-2.88,0-4.32-1.44-4.32-4.32v-8.93h-2.19c-.41,0-.61-.2-.61-.61v-.98c0-.2.05-.35.14-.46.09-.1.27-.17.53-.21l2.22-.05.03-3.77c.04-.41.25-.61.64-.61h1.64c.41,0,.61.2.61.61v3.71h2.61c.41,0,.61.2.61.61v1.15c0,.41-.2.61-.61.61h-2.61v8.78c0,.75.17,1.28.5,1.58.33.3.91.46,1.72.46.38,0,.86-.05,1.43-.15.3-.06.51-.09.61-.09.16,0,.27.05.33.14.06.09.09.24.09.44v.82c0,.26-.04.46-.12.59-.08.13-.24.24-.49.32-.79.24-1.71.36-2.77.36Z"/><path class="cls-1" d="m252.99,32.89c-1.7,0-3.23-.28-4.59-.85-.24-.1-.41-.21-.5-.33-.09-.12-.14-.31-.14-.58v-.85c0-.36.12-.55.36-.55.14,0,.4.06.76.18,1.34.43,2.73.64,4.16.64.99,0,1.75-.19,2.26-.58.52-.38.78-.94.78-1.67,0-.49-.16-.88-.47-1.19-.31-.3-.89-.61-1.72-.91l-2.58-.97c-2.25-.83-3.37-2.25-3.37-4.25,0-1.32.51-2.38,1.53-3.19,1.02-.81,2.37-1.22,4.03-1.22,1.32,0,2.6.23,3.86.7.24.08.42.19.52.32.1.13.15.33.15.59v.82c0,.36-.13.55-.4.55-.14,0-.38-.05-.7-.15-1.07-.32-2.17-.49-3.28-.49-1.95,0-2.92.66-2.92,1.98,0,.53.16.94.49,1.25.32.3.96.64,1.91,1l2.37.91c1.2.47,2.06,1.02,2.58,1.66.53.64.79,1.46.79,2.48,0,1.44-.54,2.58-1.61,3.43-1.07.85-2.5,1.28-4.29,1.28Z"/><path class="cls-1" d="m268.03,32.89c-2.49,0-4.38-.69-5.65-2.07-1.28-1.38-1.91-3.41-1.91-6.11s.64-4.57,1.91-6c1.28-1.43,3.06-2.14,5.35-2.14,1.92,0,3.4.54,4.44,1.63,1.03,1.08,1.55,2.62,1.55,4.6,0,.65-.05,1.31-.15,1.98-.04.24-.11.41-.2.49-.09.08-.24.12-.44.12h-9.54c.04,1.74.47,3.03,1.29,3.86.82.83,2.09,1.25,3.81,1.25.61,0,1.19-.04,1.75-.12.56-.08,1.26-.25,2.11-.52.14-.04.26-.08.36-.11.1-.03.19-.05.27-.05.26,0,.4.18.4.55v.85c0,.26-.04.45-.12.56-.08.11-.25.23-.52.35-.61.26-1.33.48-2.17.64-.84.16-1.69.24-2.54.24Zm2.92-9.51c.02-.16.03-.43.03-.79,0-1.24-.29-2.17-.87-2.8-.58-.63-1.42-.94-2.54-.94-1.28,0-2.27.38-2.98,1.14-.71.76-1.11,1.89-1.22,3.39h7.57Z"/><path class="cls-1" d="m276.97,32.43c-.41,0-.61-.2-.61-.61v-14.19c0-.41.2-.61.61-.61h1.34c.2,0,.36.04.47.12.11.08.19.23.23.46l.21,1.7c.55-.59,1.06-1.05,1.55-1.4.49-.34.99-.6,1.5-.76.52-.16,1.07-.24,1.66-.24.24,0,.49.01.73.03.34.04.52.22.52.55v1.64c0,.36-.18.55-.55.55-.18,0-.36,0-.53-.03-.17-.02-.36-.03-.56-.03-1.62,0-3.01.49-4.16,1.46v10.76c0,.41-.2.61-.61.61h-1.79Z"/><path class="cls-1" d="m292.68,32.43c-.28,0-.49-.04-.62-.12-.13-.08-.27-.31-.41-.7l-5.38-13.49c-.04-.12-.09-.24-.14-.36-.05-.12-.08-.23-.08-.33,0-.26.15-.4.46-.4h1.79c.3,0,.52.04.64.12.12.08.25.31.4.7l4.16,11.85,4.16-11.85c.14-.38.27-.62.4-.7.12-.08.33-.12.64-.12h1.67c.3,0,.46.13.46.4,0,.1-.03.21-.08.33-.05.12-.1.24-.14.36l-5.35,13.49c-.14.39-.28.62-.41.7-.13.08-.34.12-.62.12h-1.55Z"/><path class="cls-1" d="m304.23,15.63c-.59,0-1.05-.17-1.38-.5-.33-.33-.5-.77-.5-1.32s.17-.99.5-1.32c.33-.33.79-.5,1.38-.5s1.05.17,1.38.5c.33.33.5.77.5,1.32s-.17.99-.5,1.32c-.33.33-.8.5-1.38.5Zm-.91,16.8c-.41,0-.61-.2-.61-.61v-14.19c0-.41.2-.61.61-.61h1.79c.41,0,.61.2.61.61v14.19c0,.41-.2.61-.61.61h-1.79Z"/><path class="cls-1" d="m315.78,32.77c-2.39,0-4.22-.68-5.49-2.05-1.27-1.37-1.9-3.35-1.9-5.94s.65-4.56,1.96-5.97c1.31-1.41,3.16-2.11,5.55-2.11,1.09,0,2.17.19,3.22.58.22.08.38.18.47.3.09.12.14.32.14.61v.82c0,.41-.13.61-.4.61-.1,0-.26-.03-.49-.09-.83-.24-1.67-.36-2.52-.36-1.7,0-2.93.43-3.68,1.29-.75.86-1.12,2.23-1.12,4.12v.4c0,1.84.38,3.2,1.14,4.06.76.86,1.96,1.29,3.6,1.29.85,0,1.76-.14,2.73-.43.22-.06.37-.09.46-.09.26,0,.39.2.39.61v.82c0,.26-.04.46-.12.58-.08.12-.24.23-.49.33-.99.43-2.15.64-3.46.64Z"/><path class="cls-1" d="m328.66,32.89c-2.49,0-4.38-.69-5.65-2.07-1.28-1.38-1.91-3.41-1.91-6.11s.64-4.57,1.91-6c1.28-1.43,3.06-2.14,5.35-2.14,1.92,0,3.4.54,4.44,1.63,1.03,1.08,1.55,2.62,1.55,4.6,0,.65-.05,1.31-.15,1.98-.04.24-.11.41-.2.49-.09.08-.24.12-.44.12h-9.54c.04,1.74.47,3.03,1.29,3.86.82.83,2.09,1.25,3.81,1.25.61,0,1.19-.04,1.75-.12.56-.08,1.26-.25,2.11-.52.14-.04.26-.08.36-.11.1-.03.19-.05.27-.05.26,0,.4.18.4.55v.85c0,.26-.04.45-.12.56-.08.11-.25.23-.52.35-.61.26-1.33.48-2.17.64-.84.16-1.69.24-2.54.24Zm2.92-9.51c.02-.16.03-.43.03-.79,0-1.24-.29-2.17-.87-2.8-.58-.63-1.42-.94-2.54-.94-1.28,0-2.27.38-2.98,1.14-.71.76-1.11,1.89-1.22,3.39h7.57Z"/><path class="cls-1" d="m341.24,32.89c-1.7,0-3.23-.28-4.59-.85-.24-.1-.41-.21-.5-.33-.09-.12-.14-.31-.14-.58v-.85c0-.36.12-.55.36-.55.14,0,.4.06.76.18,1.34.43,2.73.64,4.16.64.99,0,1.75-.19,2.26-.58.52-.38.78-.94.78-1.67,0-.49-.16-.88-.47-1.19-.31-.3-.89-.61-1.72-.91l-2.58-.97c-2.25-.83-3.37-2.25-3.37-4.25,0-1.32.51-2.38,1.53-3.19,1.02-.81,2.37-1.22,4.03-1.22,1.32,0,2.6.23,3.86.7.24.08.42.19.52.32.1.13.15.33.15.59v.82c0,.36-.13.55-.4.55-.14,0-.38-.05-.7-.15-1.07-.32-2.17-.49-3.28-.49-1.95,0-2.92.66-2.92,1.98,0,.53.16.94.49,1.25.32.3.96.64,1.91,1l2.37.91c1.2.47,2.06,1.02,2.58,1.66.53.64.79,1.46.79,2.48,0,1.44-.54,2.58-1.61,3.43-1.07.85-2.5,1.28-4.29,1.28Z"/><path class="cls-2" d="m73.45,44.03c-6.88,5.08-16.85,7.78-25.44,7.78-12.03,0-22.87-4.45-31.07-11.85-.64-.58-.07-1.38.7-.93,8.85,5.15,19.79,8.25,31.09,8.25,7.62,0,16-1.58,23.72-4.85,1.16-.49,2.14.77,1,1.61h0Z"/><path class="cls-2" d="m76.31,40.76c-.88-1.13-5.82-.53-8.03-.27-.67.08-.78-.51-.17-.93,3.94-2.77,10.39-1.97,11.14-1.04.76.93-.2,7.4-3.89,10.49-.57.47-1.11.22-.86-.41.83-2.07,2.69-6.72,1.81-7.84h0Z"/><path class="cls-2" d="m68.43,20.03v-2.69c0-.41.31-.68.68-.68h12.04c.39,0,.69.28.69.68v2.3c0,.39-.33.89-.91,1.69l-6.24,8.91c2.32-.05,4.77.29,6.87,1.48.47.27.6.66.64,1.05v2.87c0,.39-.43.85-.89.61-3.71-1.94-8.63-2.15-12.73.02-.42.22-.86-.23-.86-.62v-2.73c0-.44,0-1.18.45-1.85l7.23-10.37h-6.29c-.38,0-.69-.27-.7-.68h0Z"/><path class="cls-2" d="m92.25,20.15c-2.7,0-2.87,3.68-2.87,5.98s-.03,7.2,2.84,7.2,2.98-3.96,2.98-6.37c0-1.58-.07-3.48-.55-4.99-.41-1.31-1.23-1.82-2.39-1.82h0Zm-.03-3.84c5.44,0,8.38,4.67,8.38,10.61s-3.25,10.29-8.38,10.29-8.24-4.67-8.24-10.49,2.94-10.41,8.24-10.41h0Z"/><path class="cls-2" d="m62.53,36.77c-.24.22-.68.22-.87.09-1.25-.97-2.1-2.44-2.1-2.44-2.01,2.05-3.44,2.66-6.04,2.66-3.08,0-5.48-1.9-5.48-5.71,0-2.97,1.61-5,3.91-5.99,1.99-.87,4.76-1.03,6.89-1.27,0,0,.18-2.3-.44-3.13-.48-.65-1.3-.95-2.06-.95-1.36,0-2.67.73-2.93,2.16-.07.41-.37.75-.69.71l-3.51-.38c-.27-.03-.63-.31-.55-.77.82-4.31,4.71-5.61,8.19-5.61,1.78,0,4.11.48,5.52,1.82,1.78,1.67,1.61,3.89,1.61,6.31v5.71c0,1.72.71,2.47,1.38,3.4.23.33.29.73-.01.97-.75.63-2.82,2.43-2.82,2.43h0Zm-3.69-8.93c0,1.43.03,2.62-.68,3.89-.58,1.03-1.51,1.67-2.54,1.67-1.41,0-2.23-1.07-2.23-2.66,0-3.12,2.8-3.69,5.45-3.69v.79h0Z"/><path class="cls-2" d="m14.49,36.77c-.24.22-.69.22-.87.09-1.25-.97-2.1-2.44-2.1-2.44-2.01,2.05-3.44,2.66-6.04,2.66-3.08,0-5.48-1.9-5.48-5.71,0-2.97,1.61-5,3.91-5.99,1.99-.87,4.76-1.03,6.89-1.27,0,0,.18-2.3-.45-3.13-.48-.65-1.3-.95-2.06-.95-1.36,0-2.67.73-2.93,2.16-.07.41-.37.75-.69.71l-3.51-.38c-.27-.03-.63-.31-.55-.77.82-4.31,4.71-5.61,8.19-5.61,1.78,0,4.11.48,5.52,1.82,1.78,1.67,1.61,3.89,1.61,6.31v5.71c0,1.72.71,2.47,1.38,3.4.23.33.29.73-.01.97-.75.63-2.82,2.43-2.82,2.43h0Zm-3.69-8.93c0,1.43.03,2.62-.69,3.89-.58,1.03-1.51,1.67-2.54,1.67-1.4,0-2.23-1.07-2.23-2.66,0-3.12,2.8-3.69,5.45-3.69v.79h0Z"/><path class="cls-2" d="m25.21,26.17c0-2.18-.1-5.18,2.53-5.18s2.26,3.09,2.26,5.18v9.97c0,.36.29.65.66.68h3.66c.39,0,.71-.3.71-.68v-9.97c0-1.07-.03-2.65.34-3.6.38-.95,1.3-1.54,2.19-1.54,1.06,0,1.88.36,2.15,1.62.17.75.1,2.73.1,3.52v9.97c0,.36.29.65.66.68h3.66c.39,0,.71-.3.71-.68v-11.87c0-2.02.24-4.31-.92-5.9-1.03-1.42-2.7-2.06-4.24-2.06-2.15,0-4.17,1.11-5.06,3.48-1.03-2.37-2.46-3.48-4.75-3.48s-3.93,1.11-4.82,3.48h-.07v-2.4c0-.38-.31-.68-.68-.68h-3.42c-.38,0-.68.31-.68.68v18.73c0,.38.31.68.68.68h3.66c.38,0,.68-.31.68-.68v-9.96h0Z"/><path class="cls-2" d="m108.37,36.13c0,.38-.31.68-.68.68h-3.66c-.38,0-.68-.31-.68-.68v-18.73c0-.38.31-.68.68-.68h3.38c.4,0,.68.32.68.53v2.87h.07c1.03-2.57,2.46-3.8,4.99-3.8,1.64,0,3.25.59,4.28,2.22.96,1.5.96,4.04.96,5.86v11.83c-.04.33-.34.59-.7.59h-3.67c-.34-.02-.61-.27-.65-.59v-11.36c0-3.8-1.45-3.91-2.29-3.91-.98,0-1.76.76-2.11,1.48-.51,1.15-.59,2.32-.59,3.59v10.12h0Z"/></svg>