<?xml version="1.0" encoding="UTF-8"?><svg id="Layer_1" xmlns="http://www.w3.org/2000/svg" viewBox="0 0 400.7 54"><defs><style>.cls-1{fill:#0dab80;}.cls-2{fill:#fff;fill-rule:evenodd;}</style></defs><path class="cls-2" d="m73.45,46.22c-6.88,5.08-16.85,7.78-25.44,7.78-12.03,0-22.87-4.45-31.07-11.85-.64-.58-.07-1.38.7-.93,8.85,5.15,19.79,8.25,31.09,8.25,7.62,0,16-1.58,23.72-4.85,1.16-.49,2.14.77,1,1.61h0Z"/><path class="cls-2" d="m76.31,42.96c-.88-1.13-5.82-.53-8.03-.27-.67.08-.78-.51-.17-.93,3.94-2.77,10.39-1.97,11.14-1.04.76.93-.2,7.4-3.89,10.49-.57.47-1.11.22-.86-.41.83-2.07,2.69-6.72,1.81-7.84h0Z"/><path class="cls-2" d="m68.43,22.22v-2.69c0-.41.31-.68.68-.68h12.04c.39,0,.69.28.69.68v2.3c0,.39-.33.89-.91,1.69l-6.24,8.91c2.32-.05,4.77.29,6.87,1.48.47.27.6.66.64,1.05v2.87c0,.39-.43.85-.89.61-3.71-1.94-8.63-2.15-12.73.02-.42.22-.86-.23-.86-.62v-2.73c0-.44,0-1.18.45-1.85l7.23-10.37h-6.29c-.38,0-.69-.27-.7-.68h0Z"/><path class="cls-2" d="m92.25,22.34c-2.7,0-2.87,3.68-2.87,5.98s-.03,7.2,2.84,7.2,2.98-3.96,2.98-6.37c0-1.58-.07-3.48-.55-4.99-.41-1.31-1.23-1.82-2.39-1.82h0Zm-.03-3.84c5.44,0,8.38,4.67,8.38,10.61s-3.25,10.29-8.38,10.29-8.24-4.67-8.24-10.49,2.94-10.41,8.24-10.41h0Z"/><path class="cls-2" d="m62.53,38.96c-.24.22-.68.22-.87.09-1.25-.97-2.1-2.44-2.1-2.44-2.01,2.05-3.44,2.66-6.04,2.66-3.08,0-5.48-1.9-5.48-5.71,0-2.97,1.61-5,3.91-5.99,1.99-.87,4.76-1.03,6.89-1.27,0,0,.18-2.3-.44-3.13-.48-.65-1.3-.95-2.06-.95-1.36,0-2.67.73-2.93,2.16-.07.41-.37.75-.69.71l-3.51-.38c-.27-.03-.63-.31-.55-.77.82-4.31,4.71-5.61,8.19-5.61,1.78,0,4.11.48,5.52,1.82,1.78,1.67,1.61,3.89,1.61,6.31v5.71c0,1.72.71,2.47,1.38,3.4.23.33.29.73-.01.97-.75.63-2.82,2.43-2.82,2.43h0Zm-3.69-8.93c0,1.43.03,2.62-.68,3.89-.58,1.03-1.51,1.67-2.54,1.67-1.41,0-2.23-1.07-2.23-2.66,0-3.12,2.8-3.69,5.45-3.69v.79h0Z"/><path class="cls-2" d="m14.49,38.96c-.24.22-.69.22-.87.09-1.25-.97-2.1-2.44-2.1-2.44-2.01,2.05-3.44,2.66-6.04,2.66-3.08,0-5.48-1.9-5.48-5.71,0-2.97,1.61-5,3.91-5.99,1.99-.87,4.76-1.03,6.89-1.27,0,0,.18-2.3-.45-3.13-.48-.65-1.3-.95-2.06-.95-1.36,0-2.67.73-2.93,2.16-.07.41-.37.75-.69.71l-3.51-.38c-.27-.03-.63-.31-.55-.77.82-4.31,4.71-5.61,8.19-5.61,1.78,0,4.11.48,5.52,1.82,1.78,1.67,1.61,3.89,1.61,6.31v5.71c0,1.72.71,2.47,1.38,3.4.23.33.29.73-.01.97-.75.63-2.82,2.43-2.82,2.43h0Zm-3.69-8.93c0,1.43.03,2.62-.69,3.89-.58,1.03-1.51,1.67-2.54,1.67-1.4,0-2.23-1.07-2.23-2.66,0-3.12,2.8-3.69,5.45-3.69v.79h0Z"/><path class="cls-2" d="m25.21,28.36c0-2.18-.1-5.18,2.53-5.18s2.26,3.09,2.26,5.18v9.97c0,.36.29.65.66.68h3.66c.39,0,.71-.3.71-.68v-9.97c0-1.07-.03-2.65.34-3.6.38-.95,1.3-1.54,2.19-1.54,1.06,0,1.88.36,2.15,1.62.17.75.1,2.73.1,3.52v9.97c0,.36.29.65.66.68h3.66c.39,0,.71-.3.71-.68v-11.87c0-2.02.24-4.31-.92-5.9-1.03-1.42-2.7-2.06-4.24-2.06-2.15,0-4.17,1.11-5.06,3.48-1.03-2.37-2.46-3.48-4.75-3.48s-3.93,1.11-4.82,3.48h-.07v-2.4c0-.38-.31-.68-.68-.68h-3.42c-.38,0-.68.31-.68.68v18.73c0,.38.31.68.68.68h3.66c.38,0,.68-.31.68-.68v-9.96h0Z"/><path class="cls-2" d="m108.37,38.32c0,.38-.31.68-.68.68h-3.66c-.38,0-.68-.31-.68-.68v-18.73c0-.38.31-.68.68-.68h3.38c.4,0,.68.32.68.53v2.87h.07c1.03-2.57,2.46-3.8,4.99-3.8,1.64,0,3.25.59,4.28,2.22.96,1.5.96,4.04.96,5.86v11.83c-.04.33-.34.59-.7.59h-3.67c-.34-.02-.61-.27-.65-.59v-11.36c0-3.8-1.45-3.91-2.29-3.91-.98,0-1.76.76-2.11,1.48-.51,1.15-.59,2.32-.59,3.59v10.12h0Z"/><path class="cls-1" d="m129.34,45.77c-.49,0-.73-.24-.73-.73v-24.49c0-.49.24-.73.73-.73h1.6c.48,0,.76.24.84.73l.18,1.16c1.84-1.63,3.89-2.44,6.15-2.44s4.21.85,5.57,2.55c1.36,1.7,2.04,4.03,2.04,6.99,0,1.99-.32,3.73-.96,5.2-.64,1.48-1.55,2.63-2.73,3.44-1.18.81-2.57,1.22-4.17,1.22-2.18,0-4.06-.72-5.64-2.15v8.52c0,.48-.24.73-.73.73h-2.15Zm7.68-10.01c3.35,0,5.02-2.26,5.02-6.77s-1.65-6.81-4.95-6.81c-1.72,0-3.35.56-4.88,1.67v10.15c1.58,1.16,3.18,1.75,4.8,1.75Z"/><path class="cls-1" d="m154.02,38.75c-1.72,0-3.1-.5-4.13-1.49-1.03-.99-1.55-2.3-1.55-3.93,0-1.77.63-3.18,1.89-4.24,1.26-1.06,2.96-1.58,5.1-1.58,1.36,0,2.89.21,4.59.62v-2.4c0-1.31-.3-2.23-.89-2.77-.59-.53-1.61-.8-3.04-.8-.78,0-1.6.06-2.46.18-.86.12-1.68.3-2.46.55-.36.1-.61.16-.75.2-.13.04-.24.05-.31.05-.29,0-.44-.22-.44-.66v-.98c0-.34.05-.58.15-.71.1-.13.29-.26.58-.38.78-.34,1.74-.61,2.89-.82,1.15-.21,2.29-.31,3.4-.31,2.3,0,4,.47,5.1,1.42s1.64,2.41,1.64,4.4v12.45c0,.49-.24.73-.73.73h-1.57c-.46,0-.73-.23-.8-.69l-.18-1.2c-.87.75-1.84,1.33-2.89,1.75-1.06.41-2.11.62-3.15.62Zm.87-2.73c1.7,0,3.37-.62,5.02-1.86v-3.71c-.61-.15-1.24-.26-1.91-.35-.67-.08-1.32-.13-1.95-.13-2.74,0-4.11,1.06-4.11,3.17,0,.9.25,1.6.76,2.11.51.51,1.24.76,2.18.76Z"/><path class="cls-1" d="m169.01,46.21c-.78,0-1.47-.09-2.07-.25-.51-.15-.76-.51-.76-1.09v-.95c0-.46.18-.69.55-.69.12,0,.3.02.55.07.24.05.57.07.98.07.92,0,1.64-.22,2.15-.67.51-.45.97-1.24,1.38-2.38l.69-1.86-7.02-17.32c-.17-.41-.25-.7-.25-.87,0-.29.17-.44.51-.44h2.18c.39,0,.66.06.8.18s.29.39.44.8l5.1,14.12,4.91-14.12c.15-.41.29-.68.44-.8.15-.12.41-.18.8-.18h2.04c.34,0,.51.15.51.44,0,.17-.09.46-.25.87l-8.01,20.38c-.66,1.67-1.42,2.88-2.29,3.6-.87.73-1.99,1.09-3.35,1.09Z"/><path class="cls-1" d="m188.23,38.27h-2.15c-.49,0-.73-.24-.73-.73v-17c0-.49.24-.73.73-.73h1.6c.48,0,.76.23.84.69l.22,1.16c1.16-.8,2.3-1.4,3.42-1.8,1.12-.4,2.24-.6,3.38-.6,2.26,0,3.78.86,4.59,2.58,2.4-1.72,4.8-2.58,7.21-2.58,1.67,0,2.96.47,3.86,1.42.9.95,1.35,2.29,1.35,4.04v12.81c0,.49-.24.73-.73.73h-2.15c-.49,0-.73-.24-.73-.73v-11.79c0-1.24-.23-2.14-.69-2.71-.46-.57-1.19-.86-2.18-.86-1.77,0-3.55.55-5.35,1.64.02.17.04.35.04.55v13.17c0,.49-.24.73-.73.73h-2.15c-.49,0-.73-.24-.73-.73v-11.79c0-1.24-.23-2.14-.69-2.71-.46-.57-1.19-.86-2.18-.86-1.84,0-3.62.53-5.31,1.6v13.76c0,.49-.24.73-.73.73Z"/><path class="cls-1" d="m225.31,38.82c-2.98,0-5.24-.82-6.77-2.47-1.53-1.65-2.29-4.09-2.29-7.31s.76-5.48,2.29-7.19c1.53-1.71,3.66-2.57,6.41-2.57,2.3,0,4.08.64,5.31,1.93,1.24,1.29,1.86,3.13,1.86,5.53,0,.46-.02.91-.05,1.35-.04.44-.08.78-.13,1.02-.07.49-.33.73-.76.73h-11.43c.05,2.11.57,3.66,1.57,4.64.99.98,2.51,1.47,4.55,1.47,1,0,1.84-.08,2.55-.24.7-.16,1.39-.33,2.07-.53.19-.05.35-.09.46-.13.11-.04.21-.05.31-.05.32,0,.47.22.47.66v1.02c0,.32-.05.54-.15.67-.1.13-.3.27-.62.42-.68.32-1.52.57-2.53.76-1.01.19-2.04.29-3.11.29Zm-5.57-11.39h9.06c.02-.15.04-.29.04-.44v-.51c0-2.98-1.36-4.48-4.08-4.48-3.13,0-4.8,1.81-5.02,5.42Z"/><path class="cls-1" d="m238.67,38.27h-2.15c-.49,0-.73-.24-.73-.73v-17c0-.49.24-.73.73-.73h1.6c.49,0,.76.23.84.69l.22,1.35c2.3-1.72,4.73-2.58,7.28-2.58,1.77,0,3.12.47,4.04,1.4.92.93,1.38,2.29,1.38,4.06v12.81c0,.49-.24.73-.73.73h-2.15c-.49,0-.73-.24-.73-.73v-11.61c0-1.29-.26-2.23-.78-2.84s-1.34-.91-2.46-.91c-.97,0-1.93.16-2.88.47-.95.32-1.87.78-2.77,1.38v13.5c0,.49-.24.73-.73.73Z"/><path class="cls-1" d="m262.87,38.53c-3.45,0-5.17-1.72-5.17-5.17v-10.7h-2.62c-.49,0-.73-.24-.73-.73v-.91c0-.46.27-.73.8-.8l2.66-.33.47-4.51c.05-.49.3-.73.76-.73h1.53c.48,0,.73.24.73.73v4.44h4.73c.48,0,.73.24.73.73v1.38c0,.49-.24.73-.73.73h-4.73v10.52c0,.9.2,1.53.6,1.89.4.36,1.09.55,2.06.55.46,0,1.03-.06,1.71-.18.27-.05.44-.08.53-.09.09-.01.15-.02.2-.02.34,0,.51.23.51.69v.98c0,.32-.05.55-.16.71-.11.16-.3.29-.56.38-.95.29-2.05.44-3.31.44Z"/><path class="cls-1" d="m282.7,38.82c-2.04,0-3.87-.34-5.5-1.02-.32-.12-.52-.26-.62-.42-.1-.16-.15-.38-.15-.67v-1.02c0-.44.15-.66.44-.66.07,0,.18.01.31.04.13.02.33.09.6.18,1.6.51,3.26.76,4.99.76,2.43,0,3.64-.9,3.64-2.69,0-.58-.19-1.06-.56-1.42-.38-.36-1.06-.73-2.06-1.09l-3.09-1.16c-2.69-.99-4.04-2.69-4.04-5.1,0-1.58.61-2.85,1.84-3.82,1.23-.97,2.83-1.46,4.82-1.46.78,0,1.57.07,2.38.22.81.15,1.56.35,2.24.62.32.1.53.23.64.4.11.17.16.4.16.69v.98c0,.44-.16.66-.47.66-.17,0-.45-.06-.84-.18-1.29-.39-2.6-.58-3.93-.58-2.33,0-3.49.79-3.49,2.37,0,.63.19,1.13.58,1.49.39.36,1.15.76,2.29,1.2l2.84,1.09c1.46.56,2.49,1.23,3.11,2,.62.78.93,1.76.93,2.95,0,1.7-.64,3.06-1.91,4.09-1.27,1.03-2.99,1.55-5.15,1.55Z"/><path class="cls-1" d="m300.94,38.82c-2.98,0-5.24-.82-6.77-2.47-1.53-1.65-2.29-4.09-2.29-7.31s.76-5.48,2.29-7.19c1.53-1.71,3.66-2.57,6.41-2.57,2.3,0,4.08.64,5.31,1.93,1.24,1.29,1.86,3.13,1.86,5.53,0,.46-.02.91-.05,1.35-.04.44-.08.78-.13,1.02-.07.49-.33.73-.76.73h-11.43c.05,2.11.57,3.66,1.57,4.64.99.98,2.51,1.47,4.55,1.47,1,0,1.84-.08,2.55-.24.7-.16,1.39-.33,2.07-.53.19-.05.35-.09.46-.13.11-.04.21-.05.31-.05.32,0,.47.22.47.66v1.02c0,.32-.05.54-.15.67-.1.13-.3.27-.62.42-.68.32-1.52.57-2.53.76-1.01.19-2.04.29-3.11.29Zm-5.57-11.39h9.06c.02-.15.04-.29.04-.44v-.51c0-2.98-1.36-4.48-4.08-4.48-3.13,0-4.8,1.81-5.02,5.42Z"/><path class="cls-1" d="m314.29,38.27h-2.15c-.49,0-.73-.24-.73-.73v-17c0-.49.24-.73.73-.73h1.6c.49,0,.76.23.84.69l.25,2.04c.82-.87,1.67-1.57,2.55-2.09.87-.52,1.9-.78,3.09-.78h.4c.1,0,.25.01.47.04.41.05.62.27.62.66v1.97c0,.44-.22.66-.65.66-.22,0-.43-.01-.62-.04-.19-.02-.42-.04-.69-.04-1,0-1.91.15-2.73.46-.83.3-1.58.73-2.26,1.29v12.88c0,.49-.24.73-.73.73Z"/><path class="cls-1" d="m333.18,38.27h-1.86c-.41,0-.69-.07-.82-.22-.13-.15-.27-.4-.42-.76l-6.44-16.16c-.05-.15-.1-.3-.16-.45-.06-.16-.09-.28-.09-.38,0-.32.18-.47.55-.47h2.15c.41,0,.68.07.82.2.13.13.27.39.42.78l4.99,14.19,4.99-14.19c.15-.39.28-.65.42-.78.13-.13.41-.2.82-.2h2c.36,0,.55.16.55.47,0,.1-.03.22-.09.38-.06.16-.12.31-.16.45l-6.41,16.16c-.15.36-.29.62-.42.76-.13.15-.41.22-.82.22Z"/><path class="cls-1" d="m345.55,16.55c-.68,0-1.23-.19-1.64-.58-.41-.39-.62-.92-.62-1.6s.21-1.21.62-1.6c.41-.39.96-.58,1.64-.58s1.25.19,1.66.58c.4.39.6.92.6,1.6s-.2,1.21-.6,1.6c-.4.39-.95.58-1.66.58Zm-1.09,21.73c-.49,0-.73-.24-.73-.73v-17c0-.49.24-.73.73-.73h2.15c.49,0,.73.24.73.73v17c0,.49-.24.73-.73.73h-2.15Z"/><path class="cls-1" d="m360.11,38.67c-2.86,0-5.05-.82-6.57-2.46-1.52-1.64-2.27-4.01-2.27-7.11s.78-5.47,2.35-7.15,3.78-2.53,6.64-2.53c.7,0,1.37.06,2,.18.63.12,1.25.29,1.86.51.29.1.49.22.58.38.1.16.15.39.15.71v.98c0,.49-.16.73-.47.73-.12,0-.32-.04-.58-.11-.44-.12-.92-.22-1.46-.31-.53-.08-1.06-.13-1.56-.13-2.04,0-3.51.52-4.4,1.55-.9,1.03-1.35,2.67-1.35,4.93v.47c0,2.21.46,3.83,1.36,4.86.91,1.03,2.35,1.55,4.31,1.55,1.02,0,2.11-.17,3.28-.51.27-.07.45-.11.55-.11.32,0,.47.24.47.73v.98c0,.32-.05.55-.15.69-.1.15-.29.28-.58.4-1.19.51-2.57.76-4.15.76Z"/><path class="cls-1" d="m375.91,38.82c-2.98,0-5.24-.82-6.77-2.47-1.53-1.65-2.29-4.09-2.29-7.31s.76-5.48,2.29-7.19c1.53-1.71,3.66-2.57,6.41-2.57,2.3,0,4.08.64,5.31,1.93,1.24,1.29,1.86,3.13,1.86,5.53,0,.46-.02.91-.05,1.35-.04.44-.08.78-.13,1.02-.07.49-.33.73-.76.73h-11.43c.05,2.11.57,3.66,1.57,4.64.99.98,2.51,1.47,4.55,1.47,1,0,1.84-.08,2.55-.24.7-.16,1.39-.33,2.07-.53.19-.05.35-.09.46-.13.11-.04.21-.05.31-.05.32,0,.47.22.47.66v1.02c0,.32-.05.54-.15.67-.1.13-.3.27-.62.42-.68.32-1.52.57-2.53.76-1.01.19-2.04.29-3.11.29Zm-5.57-11.39h9.06c.02-.15.04-.29.04-.44v-.51c0-2.98-1.36-4.48-4.08-4.48-3.13,0-4.8,1.81-5.02,5.42Z"/><path class="cls-1" d="m391.34,38.82c-2.04,0-3.87-.34-5.5-1.02-.32-.12-.52-.26-.62-.42-.1-.16-.15-.38-.15-.67v-1.02c0-.44.15-.66.44-.66.07,0,.18.01.31.04.13.02.33.09.6.18,1.6.51,3.26.76,4.99.76,2.43,0,3.64-.9,3.64-2.69,0-.58-.19-1.06-.56-1.42-.38-.36-1.06-.73-2.06-1.09l-3.09-1.16c-2.69-.99-4.04-2.69-4.04-5.1,0-1.58.61-2.85,1.84-3.82,1.23-.97,2.83-1.46,4.82-1.46.78,0,1.57.07,2.38.22.81.15,1.56.35,2.24.62.32.1.53.23.64.4.11.17.16.4.16.69v.98c0,.44-.16.66-.47.66-.17,0-.45-.06-.84-.18-1.29-.39-2.6-.58-3.93-.58-2.33,0-3.49.79-3.49,2.37,0,.63.19,1.13.58,1.49.39.36,1.15.76,2.29,1.2l2.84,1.09c1.46.56,2.49,1.23,3.11,2,.62.78.93,1.76.93,2.95,0,1.7-.64,3.06-1.91,4.09-1.27,1.03-2.99,1.55-5.15,1.55Z"/></svg>