<?xml version="1.0" encoding="UTF-8"?><svg id="Layer_1" xmlns="http://www.w3.org/2000/svg" viewBox="0 0 165 126.13"><defs><style>.cls-1{fill:#0dac80;fill-rule:evenodd;}.cls-2{fill:#fff;font-family:AmazonEmber-Bold, 'Amazon Ember';font-size:81.63px;font-weight:700;}</style></defs><g id="Symbols"><g id="amazonpay-secondary-logo-rgb_clr"><path id="Shape" class="cls-1" d="m149.15,105.71c-18.07,13.33-44.25,20.42-66.81,20.42-31.61,0-60.07-11.68-81.61-31.13-1.69-1.53-.18-3.61,1.85-2.43,23.24,13.52,51.97,21.67,81.66,21.67,20.02,0,42.03-4.15,62.29-12.74,3.05-1.3,5.61,2.01,2.63,4.22m7.51-8.58c2.31,2.96-2.57,15.15-4.75,20.6-.66,1.65.76,2.31,2.25,1.06,9.69-8.11,12.2-25.09,10.21-27.55-1.97-2.43-18.91-4.53-29.25,2.73-1.59,1.12-1.32,2.66.45,2.45,5.82-.7,18.79-2.25,21.1.71"/></g></g><text class="cls-2" transform="translate(14.89 69.1)"><tspan x="0" y="0">aps</tspan></text></svg>